<?xml version="1.0" encoding="utf-8"?>
<!-- Generator: Adobe Illustrator 16.0.0, SVG Export Plug-In . SVG Version: 6.00 Build 0)  -->
<!DOCTYPE svg PUBLIC "-//W3C//DTD SVG 1.1//EN" "http://www.w3.org/Graphics/SVG/1.1/DTD/svg11.dtd">
<svg version="1.1" id="Layer_1" xmlns="http://www.w3.org/2000/svg" xmlns:xlink="http://www.w3.org/1999/xlink" x="0px" y="0px"
	 width="411.444px" height="120.865px" viewBox="0 0 411.444 120.865" enable-background="new 0 0 411.444 120.865"
	 xml:space="preserve">
<g>
	<g>
		<path fill="#CB212C" d="M366.875,39.016c1.542,25.099-9.563,48.087-22.641,57.038c13.396-12.812,14.823-31.749,14.925-48.656
			c-6.746-8.587-33.703-30.347-47.58-32.083c1.142,2.597,15.92,24.555,18.307,47.945c1.605,15.773-1.994,38.523-12.586,49.308
			c6.562-9.648,11.438-26.771,7.898-46.468c-5.544-30.84-32.668-60.286-46.227-66.042c17.414-0.835,52.474,7.161,79.808,41.813
			c0.436-2.121-0.045-18.256-7.492-29.721c15.132,5.612,38.179,46.93,38.179,46.93s2.43-6.214-0.679-16.097
			c5.897,6.592,27.142,29.319,21.806,36.399c-1.481,1.962-22.939,31.488-84.771,39.63c54.698-8.233,82.609-40.129,80.435-44.03
			c-4.42-7.923-9.308-12.305-11.809-13.669c-1.099,8.84-8.713,19.421-18.859,28.159c9.372-12.672,14.227-22.458,13.136-24.742
			C382.982,52.69,371.462,43.466,366.875,39.016"/>
		<g>
			<path d="M49.771,68.783c-1.329-1.312-2.952-2.448-4.873-3.407c-1.924-0.962-4.107-1.812-6.565-2.554
				c-0.376-0.124-0.597-0.339-0.657-0.653c-0.07-0.312,0.147-0.567,0.649-0.759c1.502-0.577,2.943-1.253,4.316-2.053
				c1.381-0.792,2.567-1.721,3.563-2.799c0.999-1.071,1.797-2.334,2.383-3.782c0.587-1.448,0.871-3.146,0.858-5.096
				c-0.019-3.139-0.771-5.693-2.257-7.665c-1.492-1.967-3.383-3.506-5.685-4.623c-2.299-1.121-4.8-1.868-7.502-2.265
				c-2.702-0.393-5.279-0.578-7.726-0.562c-0.94,0.005-1.995,0.03-3.158,0.068c-1.16,0.041-2.355,0.091-3.576,0.162
				c-1.228,0.071-2.421,0.127-3.583,0.165c-1.16,0.036-2.211,0.061-3.155,0.066c-2.257,0.015-4.239-0.033-5.934-0.149
				c-1.696-0.116-3.615-0.165-5.748-0.154c-0.379,0.002-0.661,0.165-0.848,0.479C0.086,33.518-0.002,33.859,0,34.236
				c0.001,0.373,0.096,0.719,0.289,1.033c0.19,0.316,0.475,0.471,0.853,0.466c0.691,0.058,1.414,0.149,2.166,0.268
				c0.756,0.126,1.482,0.273,2.173,0.458c1.132,0.311,2.03,0.868,2.692,1.678c0.668,0.812,1.155,1.782,1.479,2.914
				c0.32,1.126,0.533,2.352,0.635,3.67s0.16,2.668,0.169,4.05l0.227,36.171c0.012,1.633-0.14,2.957-0.447,3.959
				c-0.31,1.008-0.805,1.844-1.492,2.507c-0.688,0.668-1.581,1.154-2.679,1.479c-1.096,0.326-2.396,0.579-3.902,0.776
				c-0.504,0.066-0.859,0.291-1.078,0.666c-0.219,0.385-0.312,0.757-0.276,1.132c0.031,0.377,0.177,0.719,0.431,1.038
				c0.249,0.311,0.597,0.43,1.039,0.369c1.316-0.14,2.497-0.253,3.529-0.352c1.037-0.102,2.039-0.19,3.016-0.256
				c0.97-0.071,1.991-0.122,3.059-0.157c1.067-0.043,2.259-0.063,3.577-0.073c1.382-0.01,2.874,0.016,4.478,0.065
				c1.6,0.056,3.186,0.092,4.759,0.109c1.567,0.025,3.092,0.061,4.569,0.116c1.475,0.053,2.809,0.073,4.002,0.068
				c2.638-0.016,5.197-0.283,7.671-0.8c2.481-0.514,4.689-1.395,6.625-2.638c1.941-1.232,3.486-2.924,4.628-5.065
				c1.153-2.145,1.716-4.848,1.697-8.116c-0.016-2.448-0.372-4.562-1.076-6.349C52.113,71.641,51.099,70.094,49.771,68.783z
				 M20.674,40.887c-0.01-1.567,0.091-2.684,0.308-3.342c0.217-0.663,0.918-0.992,2.112-1l3.205-0.023
				c4.083-0.025,7.216,0.878,9.392,2.721c2.177,1.835,3.279,4.923,3.306,9.255c0.016,2.577-0.334,4.666-1.043,6.27
				c-0.711,1.607-1.691,2.889-2.944,3.835c-1.25,0.952-2.736,1.607-4.461,1.959c-1.724,0.36-3.625,0.537-5.696,0.555l-1.791,0.005
				c-0.817,0.008-1.396-0.238-1.75-0.734c-0.343-0.504-0.52-1.066-0.525-1.694L20.674,40.887z M39.863,89.098
				c-1.649,2.08-4.358,3.136-8.127,3.158c-2.389,0.013-4.287-0.099-5.703-0.341c-1.413-0.241-2.502-0.846-3.261-1.818
				c-0.759-0.964-1.258-2.435-1.487-4.417c-0.234-1.972-0.359-4.658-0.381-8.05l-0.052-8.293c-0.008-1.187,0.188-2.2,0.594-3.015
				c0.402-0.82,1.231-1.233,2.488-1.243l1.79-0.013c2.262-0.013,4.396,0.177,6.411,0.577c2.011,0.393,3.757,1.122,5.243,2.18
				c1.481,1.058,2.666,2.544,3.563,4.453c0.89,1.909,1.34,4.372,1.36,7.384C42.326,83.87,41.518,87.017,39.863,89.098z"/>
			<path d="M90.861,56.796c-1.512-1.595-3.359-2.837-5.534-3.734c-2.173-0.896-4.575-1.336-7.216-1.319
				c-3.14,0.018-5.992,0.63-8.56,1.838c-2.567,1.21-4.788,2.828-6.66,4.845c-1.868,2.025-3.315,4.42-4.334,7.191
				c-1.016,2.772-1.519,5.691-1.5,8.771c0.021,3.205,0.466,6.167,1.328,8.893c0.867,2.722,2.2,5.104,4.001,7.137
				c1.803,2.027,4.074,3.6,6.814,4.716c2.739,1.111,5.996,1.655,9.758,1.633c3.705-0.025,6.811-0.547,9.317-1.567
				c2.505-1.022,4.756-2.855,6.75-5.508c0.185-0.248,0.246-0.529,0.18-0.844c-0.063-0.316-0.205-0.6-0.425-0.848
				c-0.223-0.251-0.509-0.405-0.852-0.468c-0.344-0.062-0.675,0.035-0.99,0.291c-1.434,1.202-3.157,1.981-5.168,2.336
				c-2.005,0.359-4.073,0.547-6.209,0.557c-2.073,0.016-4.007-0.285-5.802-0.903c-1.793-0.615-3.337-1.63-4.632-3.027
				c-1.299-1.413-2.314-3.24-3.049-5.496c-0.738-2.258-1.114-5.02-1.135-8.285c0-0.311,0.009-0.577,0.043-0.797
				c0.025-0.22,0.199-0.332,0.514-0.339l26.849-0.162c0.938-0.01,1.408-0.668,1.399-1.99c-0.016-2.572-0.457-4.974-1.316-7.199
				C93.572,60.297,92.381,58.389,90.861,56.796z M86.222,67.52c-0.126,0.623-0.624,0.947-1.503,0.949l-17.148,0.106
				c-0.25,0.002-0.391-0.233-0.425-0.704c-0.038-0.471,0.006-1.086,0.129-1.837c0.181-1.446,0.485-2.828,0.915-4.149
				c0.435-1.322,1.07-2.471,1.906-3.451c0.85-0.975,1.878-1.774,3.1-2.375c1.222-0.607,2.677-0.909,4.375-0.921
				c1.379-0.01,2.606,0.261,3.678,0.82c1.072,0.56,1.987,1.306,2.745,2.246c0.761,0.931,1.351,2.018,1.763,3.237
				c0.417,1.22,0.63,2.494,0.638,3.812C86.4,66.135,86.344,66.889,86.222,67.52z"/>
			<path d="M136.559,87.689c-0.257-0.218-0.537-0.369-0.851-0.463c-0.316-0.091-0.6-0.016-0.849,0.238
				c-1.436,1.263-3.202,2.078-5.306,2.435c-2.104,0.359-4.25,0.55-6.449,0.56c-2.573,0.018-4.775-0.455-6.603-1.42
				c-1.828-0.962-3.33-2.271-4.5-3.927c-1.172-1.655-2.047-3.569-2.625-5.728c-0.579-2.167-0.878-4.44-0.894-6.825
				c-0.012-2.2,0.195-4.352,0.619-6.46c0.427-2.104,1.153-3.992,2.181-5.661c1.025-1.673,2.337-3.015,3.93-4.032
				c1.596-1.013,3.586-1.526,5.973-1.542c1.82-0.013,3.487,0.273,4.998,0.86c1.511,0.585,2.27,1.443,2.277,2.577
				c0.003,0.504-0.231,1.038-0.695,1.6c-0.465,0.572-0.699,1.299-0.695,2.18c0.009,1.316,0.44,2.316,1.292,3.002
				c0.852,0.689,1.938,1.025,3.258,1.018c1.631-0.01,2.82-0.519,3.568-1.532c0.75-1.007,1.119-2.073,1.11-3.207
				c-0.01-1.57-0.427-2.979-1.25-4.235c-0.827-1.25-1.917-2.298-3.274-3.134c-1.352-0.84-2.895-1.471-4.623-1.898
				c-1.735-0.431-3.505-0.641-5.327-0.63c-3.771,0.028-7.096,0.628-9.977,1.805c-2.883,1.18-5.304,2.767-7.269,4.757
				c-1.966,1.987-3.462,4.354-4.481,7.093c-1.019,2.739-1.515,5.647-1.495,8.726c0.025,4.336,0.672,7.956,1.949,10.864
				c1.274,2.914,2.94,5.243,4.988,6.989c2.05,1.747,4.337,2.987,6.854,3.724c2.515,0.742,5.033,1.102,7.544,1.086
				c3.768-0.025,7.031-0.531,9.788-1.521c2.756-0.992,5.163-2.873,7.222-5.649c0.187-0.254,0.229-0.539,0.131-0.849
				C136.986,88.176,136.811,87.905,136.559,87.689z"/>
			<path d="M180.422,89.723c-0.218-0.124-0.42-0.124-0.612,0c-0.81,0.514-1.438,0.846-1.876,1.007c-0.44,0.16-1,0.241-1.693,0.243
				c-1.195,0.013-2-0.425-2.41-1.304c-0.417-0.876-0.623-2.407-0.638-4.604l-0.119-18.849c-0.033-5.397-1.506-9.25-4.412-11.553
				c-2.901-2.311-6.865-3.448-11.889-3.415c-2.196,0.013-4.301,0.324-6.306,0.937c-2.009,0.608-3.758,1.417-5.26,2.436
				c-1.501,1.012-2.687,2.222-3.559,3.645c-0.87,1.42-1.299,2.916-1.289,4.486c0.009,1.319,0.372,2.435,1.101,3.333
				c0.73,0.909,1.94,1.357,3.64,1.347c1.253-0.01,2.319-0.422,3.192-1.245c0.874-0.823,1.309-1.671,1.307-2.552
				c-0.007-0.688-0.229-1.367-0.674-2.022c-0.448-0.658-0.669-1.329-0.674-2.02c-0.009-1.446,0.705-2.625,2.146-3.544
				c1.436-0.918,3.317-1.384,5.643-1.399c1.568-0.01,2.888,0.273,3.961,0.868c1.071,0.587,1.908,1.4,2.514,2.43
				c0.603,1.035,1.033,2.24,1.296,3.623c0.253,1.377,0.395,2.853,0.405,4.425l0.015,2.539c0.005,1.134-0.02,1.855-0.083,2.169
				c-0.058,0.314-0.154,0.474-0.276,0.474c-8.041,0.051-14.157,1.301-18.348,3.741c-4.193,2.443-6.274,5.926-6.246,10.45
				c0.021,3.516,1.009,6.229,2.968,8.131c1.959,1.903,4.731,2.843,8.312,2.819c3.262-0.02,5.973-0.506,8.139-1.466
				c2.161-0.956,4.049-2.156,5.677-3.614c0.243-0.248,0.436-0.221,0.562,0.089c0.638,1.318,1.605,2.46,2.901,3.425
				c1.291,0.962,2.85,1.44,4.668,1.43c3.329-0.02,6.207-1.514,8.642-4.482c0.188-0.19,0.243-0.426,0.182-0.709
				c-0.068-0.278-0.177-0.537-0.334-0.747C180.834,90.019,180.645,89.849,180.422,89.723z M164.34,86.057
				c0.003,0.502-0.245,1.005-0.747,1.512c-1.247,1.073-2.674,1.901-4.269,2.476c-1.6,0.574-3.119,0.871-4.562,0.884
				c-2.204,0.01-3.771-0.628-4.724-1.909c-0.948-1.278-1.432-2.86-1.443-4.749c-0.016-2.698,1.21-4.923,3.68-6.66
				c2.471-1.747,6.278-2.848,11.424-3.326c0.248,0,0.41,0.081,0.473,0.235c0.063,0.155,0.099,0.58,0.102,1.266L164.34,86.057z"/>
			<path d="M226.078,90.945c-1.695,0.01-3.018-0.154-3.959-0.494c-0.952-0.336-1.655-0.962-2.137-1.873
				c-0.476-0.903-0.764-2.159-0.865-3.757c-0.111-1.607-0.167-3.693-0.183-6.268l-0.156-25.058c0-0.37-0.168-0.828-0.481-1.362
				c-0.319-0.532-0.914-0.668-1.795-0.413c-2.316,0.709-4.417,1.286-6.301,1.732c-1.878,0.456-3.954,0.751-6.207,0.894
				c-0.38,0-0.646,0.144-0.8,0.425c-0.159,0.289-0.218,0.6-0.185,0.944s0.129,0.653,0.291,0.939
				c0.157,0.283,0.393,0.453,0.711,0.514c1.504,0.185,2.656,0.39,3.436,0.638c0.79,0.248,1.377,0.742,1.757,1.496
				c0.38,0.751,0.607,1.886,0.679,3.389c0.07,1.504,0.116,3.607,0.137,6.311l0.091,14.885c0.005,0.248-0.013,0.628-0.041,1.132
				c-0.027,0.501-0.137,0.848-0.321,1.035c-1.187,1.075-2.938,1.997-5.26,2.762c-2.319,0.771-4.549,1.162-6.681,1.174
				c-1.504,0.011-2.762-0.232-3.767-0.729c-1.013-0.491-1.803-1.309-2.374-2.433c-0.572-1.124-0.975-2.569-1.205-4.331
				c-0.238-1.752-0.354-3.891-0.37-6.399l-0.142-22.423c0-0.372-0.162-0.828-0.479-1.359c-0.319-0.534-0.916-0.671-1.795-0.415
				c-1.129,0.324-2.333,0.63-3.62,0.916c-1.286,0.294-2.526,0.567-3.716,0.828c-1.195,0.258-2.309,0.453-3.344,0.584
				c-1.03,0.134-1.863,0.228-2.488,0.299c-0.38,0.002-0.648,0.165-0.805,0.471c-0.149,0.324-0.212,0.633-0.182,0.949
				c0.035,0.316,0.134,0.625,0.289,0.934c0.162,0.316,0.4,0.474,0.714,0.471c1.509,0.185,2.701,0.392,3.584,0.633
				c0.878,0.25,1.539,0.747,1.984,1.499c0.44,0.752,0.734,1.883,0.871,3.39c0.137,1.501,0.212,3.607,0.228,6.308l0.066,10.645
				c0.018,2.577,0.248,4.888,0.707,6.918c0.448,2.038,1.212,3.749,2.291,5.121c1.079,1.375,2.557,2.42,4.445,3.129
				c1.883,0.706,4.278,1.054,7.167,1.033c2.199-0.016,4.471-0.415,6.822-1.215c2.354-0.801,4.683-2.21,6.991-4.235
				c0.127-0.129,0.253-0.178,0.378-0.146c0.124,0.03,0.189,0.108,0.189,0.235c0.021,3.516,0.598,5.268,1.731,5.263
				c0.248,0,0.782-0.066,1.598-0.192c0.812-0.137,1.693-0.297,2.635-0.491c0.939-0.192,1.868-0.39,2.774-0.585
				c0.911-0.189,1.615-0.319,2.121-0.388c0.623-0.062,1.14-0.137,1.55-0.199c0.41-0.066,0.784-0.111,1.129-0.152
				c0.344-0.03,0.693-0.065,1.038-0.099c0.344-0.03,0.771-0.046,1.271-0.051c0.313-0.005,0.536-0.162,0.658-0.476
				c0.121-0.312,0.182-0.631,0.182-0.941c0-0.38-0.086-0.709-0.242-0.99C226.531,91.084,226.326,90.945,226.078,90.945z"/>
			<path d="M257.387,74.501c-1.038-1.088-2.268-2.045-3.686-2.853c-1.423-0.805-2.949-1.583-4.584-2.329
				c-0.752-0.309-1.75-0.699-2.978-1.159c-1.228-0.461-2.28-0.848-3.161-1.157c-2.076-0.739-3.747-1.542-5.013-2.415
				c-1.263-0.871-1.894-2.119-1.903-3.756c-0.016-1.947,0.729-3.506,2.232-4.681c1.496-1.172,3.412-1.762,5.731-1.777
				c3.455-0.023,5.974,0.86,7.559,2.64c1.577,1.78,2.719,4.329,3.438,7.655c0.061,0.19,0.223,0.329,0.471,0.42
				c0.251,0.094,0.537,0.126,0.846,0.088c0.319-0.033,0.603-0.111,0.851-0.24c0.251-0.129,0.375-0.284,0.372-0.474
				c-0.003-0.688-0.043-1.681-0.109-2.967c-0.075-1.286-0.113-2.526-0.118-3.721c-0.008-1.129,0.061-2.197,0.215-3.205
				c0.146-1.007,0.316-1.851,0.501-2.549c0.063-0.185-0.03-0.339-0.286-0.466c-0.25-0.124-0.534-0.203-0.848-0.23
				c-0.313-0.03-0.628-0.013-0.941,0.048c-0.314,0.071-0.504,0.228-0.562,0.479c-0.248,0.884-0.577,1.402-0.977,1.562
				c-0.41,0.162-0.742,0.175-0.993,0.05c-1.64-1.055-3.134-1.779-4.485-2.179c-1.356-0.408-2.911-0.6-4.665-0.585
				c-1.825,0.013-3.678,0.246-5.557,0.691c-1.878,0.45-3.59,1.167-5.118,2.151c-1.539,0.987-2.785,2.266-3.752,3.84
				c-0.959,1.58-1.438,3.496-1.42,5.754c0.013,1.949,0.337,3.579,0.975,4.893c0.633,1.312,1.474,2.415,2.514,3.283
				c1.046,0.871,2.237,1.6,3.597,2.19c1.353,0.587,2.725,1.162,4.111,1.716c0.941,0.373,1.868,0.745,2.784,1.117
				c0.912,0.372,1.803,0.739,2.694,1.111c1.886,0.868,3.538,1.875,4.956,3.033c1.423,1.149,2.139,2.733,2.151,4.741
				c0.016,2.263-0.681,4.024-2.086,5.29c-1.404,1.267-3.24,1.904-5.503,1.919c-2.065,0.016-3.843-0.212-5.321-0.676
				c-1.479-0.458-2.741-1.156-3.787-2.093c-1.037-0.939-1.906-2.094-2.607-3.469c-0.703-1.379-1.275-2.975-1.726-4.799
				c-0.062-0.248-0.238-0.418-0.521-0.51c-0.284-0.099-0.583-0.123-0.892-0.091c-0.318,0.036-0.603,0.114-0.851,0.24
				c-0.253,0.127-0.374,0.322-0.374,0.57c0.005,0.313,0.035,0.812,0.105,1.503c0.066,0.694,0.147,1.479,0.248,2.357
				c0.106,0.878,0.203,1.771,0.299,2.681c0.102,0.911,0.152,1.744,0.157,2.498c0.005,0.752-0.051,1.569-0.177,2.45
				c-0.117,0.882-0.173,1.572-0.17,2.071c0,0.188,0.124,0.329,0.38,0.425c0.25,0.089,0.504,0.135,0.757,0.135
				c0.313-0.003,0.61-0.033,0.896-0.099c0.278-0.071,0.415-0.19,0.415-0.38c0.121-0.693,0.39-1.17,0.792-1.42
				c0.407-0.251,0.797-0.319,1.177-0.195c1.514,0.684,3.273,1.205,5.286,1.569c2.012,0.364,3.832,0.542,5.468,0.532
				c1.946-0.019,3.924-0.248,5.929-0.699c2.012-0.45,3.797-1.167,5.356-2.149c1.564-0.987,2.843-2.285,3.84-3.891
				c0.995-1.612,1.485-3.602,1.471-5.991c-0.01-1.818-0.319-3.42-0.922-4.803C259.255,76.828,258.435,75.592,257.387,74.501z"/>
			<path d="M272.955,70.585l26.843-0.167c0.949-0.01,1.418-0.668,1.407-1.987c-0.015-2.574-0.453-4.974-1.316-7.199
				c-0.86-2.223-2.05-4.134-3.569-5.724c-1.519-1.59-3.361-2.835-5.533-3.731c-2.167-0.899-4.577-1.339-7.215-1.322
				c-3.144,0.018-5.996,0.63-8.559,1.84c-2.569,1.21-4.789,2.828-6.66,4.848c-1.873,2.02-3.315,4.415-4.339,7.187
				c-1.018,2.771-1.514,5.69-1.496,8.769c0.023,3.21,0.461,6.169,1.327,8.896c0.863,2.727,2.194,5.104,4.002,7.139
				c1.803,2.027,4.073,3.595,6.814,4.713c2.736,1.114,5.992,1.656,9.756,1.633c3.706-0.022,6.81-0.544,9.315-1.564
				c2.507-1.022,4.76-2.853,6.749-5.508c0.189-0.251,0.248-0.534,0.188-0.846c-0.068-0.313-0.213-0.598-0.433-0.848
				c-0.226-0.248-0.504-0.405-0.849-0.466c-0.344-0.062-0.681,0.038-0.987,0.286c-1.438,1.202-3.164,1.986-5.169,2.341
				c-2.01,0.362-4.075,0.545-6.215,0.558c-2.073,0.013-4.007-0.289-5.799-0.901c-1.793-0.618-3.342-1.636-4.633-3.033
				c-1.296-1.409-2.313-3.237-3.051-5.493c-0.736-2.258-1.113-5.022-1.136-8.285c0-0.312,0.01-0.583,0.045-0.8
				C272.474,70.699,272.641,70.585,272.955,70.585z M272.732,64.748c0.177-1.448,0.485-2.833,0.919-4.151
				c0.428-1.322,1.062-2.471,1.906-3.451c0.845-0.977,1.873-1.769,3.093-2.374c1.226-0.608,2.679-0.909,4.38-0.921
				c1.377-0.008,2.602,0.263,3.673,0.823c1.07,0.554,1.987,1.306,2.752,2.245c0.754,0.934,1.347,2.015,1.762,3.238
				s0.628,2.493,0.635,3.81c0.005,0.883-0.053,1.638-0.175,2.266c-0.121,0.625-0.622,0.944-1.506,0.949l-17.146,0.109
				c-0.245,0-0.385-0.235-0.425-0.704C272.56,66.115,272.61,65.497,272.732,64.748z"/>
		</g>
		<g>
			<path d="M6.248,105.595c-0.288,0.002-0.517,0.104-0.685,0.304c-0.18,0.199-0.263,0.422-0.259,0.66
				c0,0.276,0.098,0.499,0.288,0.687c0.192,0.18,0.414,0.271,0.669,0.271c0.24,0,0.46-0.096,0.646-0.281
				c0.186-0.188,0.277-0.41,0.275-0.684c-0.001-0.24-0.086-0.46-0.257-0.663C6.752,105.695,6.526,105.592,6.248,105.595z"/>
			<rect x="5.519" y="110.055" transform="matrix(-1 0.0068 -0.0068 -1 13.4044 230.8695)" width="1.582" height="10.805"/>
			<path d="M30.306,109.733c-0.661,0.007-1.318,0.124-1.982,0.356c-0.661,0.23-1.22,0.494-1.678,0.798
				c-0.021-0.35-0.066-0.666-0.126-0.957l-1.532,0.008c0.065,0.493,0.096,0.951,0.102,1.387l0.058,9.413l1.577-0.01l-0.056-8.683
				c0.462-0.299,0.994-0.536,1.601-0.728c0.603-0.19,1.216-0.287,1.838-0.292c0.62-0.005,1.1,0.213,1.441,0.635
				c0.343,0.425,0.517,0.967,0.521,1.614l0.045,7.418l1.579-0.011l-0.046-7.549c-0.009-1.093-0.311-1.935-0.912-2.524
				C32.136,110.02,31.329,109.733,30.306,109.733z"/>
			<path d="M55.487,119.301c-0.361,0.07-0.652,0.111-0.886,0.116c-0.433,0-0.753-0.188-0.954-0.557
				c-0.208-0.37-0.313-0.876-0.318-1.488l-0.039-6.241l2.461-0.018l0.161-1.37l-2.631,0.018l-0.016-2.726l-1.581,0.01l0.018,2.727
				l-1.561,0.01l0.009,1.369l1.561-0.013l0.041,6.654c0.006,1.134,0.246,1.903,0.719,2.323c0.474,0.416,1.136,0.628,1.981,0.623
				c0.247-0.005,0.586-0.035,1.017-0.096c0.428-0.061,0.708-0.106,0.843-0.132l-0.129-1.367
				C56.071,119.174,55.833,119.229,55.487,119.301z"/>
			<path d="M79.286,118.83c-0.511,0.288-1.11,0.436-1.801,0.44c-0.943,0.005-1.692-0.421-2.241-1.271
				c-0.558-0.856-0.834-1.879-0.842-3.073l7.238-0.046c0.017-0.517,0.005-1.013-0.041-1.488c-0.103-1.256-0.52-2.229-1.268-2.92
				c-0.744-0.696-1.751-1.043-3.024-1.03c-1.509,0.005-2.644,0.517-3.421,1.526c-0.773,1.006-1.157,2.307-1.147,3.902
				c0.012,1.822,0.448,3.234,1.318,4.237c0.863,0.992,2.006,1.488,3.42,1.479c1.093-0.005,1.976-0.208,2.65-0.598
				c0.674-0.4,1.244-0.911,1.716-1.539l-1.152-0.911C80.269,118.111,79.796,118.536,79.286,118.83z M75.169,111.656
				c0.479-0.643,1.186-0.969,2.125-0.977c0.979-0.008,1.673,0.299,2.076,0.92c0.404,0.618,0.622,1.353,0.657,2.218l-5.611,0.03
				C74.441,113.038,74.694,112.304,75.169,111.656z"/>
			<path d="M104.67,109.27c-0.747,0.006-1.465,0.183-2.15,0.553c-0.691,0.369-1.286,0.853-1.8,1.473
				c-0.003-0.468-0.013-0.846-0.037-1.137c-0.025-0.286-0.064-0.523-0.11-0.693l-1.489,0.01c0.027,0.129,0.048,0.628,0.07,1.486
				l0.058,9.312l1.576-0.01l-0.047-7.559c0.168-0.385,0.542-0.785,1.123-1.188c0.583-0.402,1.32-0.607,2.208-0.615
				c0.305,0,0.557,0.022,0.757,0.078l0.332-1.655c-0.043-0.011-0.12-0.025-0.214-0.038
				C104.847,109.275,104.756,109.27,104.67,109.27z"/>
			<path d="M126.742,109.133c-0.661,0.003-1.319,0.119-1.982,0.35c-0.661,0.233-1.22,0.501-1.678,0.8
				c-0.023-0.344-0.063-0.66-0.126-0.959l-1.528,0.013c0.062,0.493,0.092,0.954,0.096,1.385l0.058,9.41l1.582-0.01l-0.053-8.682
				c0.455-0.296,0.989-0.534,1.594-0.729c0.604-0.185,1.219-0.286,1.839-0.288c0.622-0.003,1.101,0.21,1.444,0.638
				c0.342,0.425,0.515,0.961,0.519,1.608l0.047,7.423l1.582-0.011l-0.048-7.554c-0.006-1.095-0.311-1.933-0.909-2.518
				C128.575,109.414,127.766,109.126,126.742,109.133z"/>
			<path d="M156.711,118.85c-0.181,0-0.332-0.02-0.445-0.08c-0.118-0.057-0.211-0.152-0.285-0.299
				c-0.066-0.152-0.117-0.35-0.147-0.603c-0.028-0.254-0.045-0.577-0.048-0.968l-0.03-4.81c-0.004-0.985-0.334-1.753-0.993-2.305
				c-0.653-0.547-1.537-0.82-2.646-0.815c-0.394,0.003-0.786,0.038-1.185,0.112c-0.394,0.073-0.775,0.18-1.145,0.311
				c-0.366,0.137-0.719,0.297-1.046,0.489c-0.331,0.188-0.617,0.397-0.866,0.627l0.859,1.08c0.187-0.148,0.394-0.303,0.627-0.462
				c0.236-0.159,0.487-0.307,0.766-0.44c0.279-0.137,0.582-0.251,0.902-0.339c0.325-0.092,0.673-0.137,1.044-0.137
				c0.666-0.008,1.173,0.154,1.543,0.468c0.37,0.321,0.557,0.836,0.56,1.533l0.008,1.113c-0.426,0.006-0.893,0.025-1.397,0.066
				c-0.509,0.04-1.018,0.111-1.524,0.228c-0.51,0.106-1.001,0.258-1.48,0.445c-0.475,0.188-0.894,0.44-1.258,0.739
				c-0.366,0.299-0.658,0.668-0.878,1.094c-0.224,0.431-0.328,0.937-0.325,1.514c0.004,0.436,0.079,0.82,0.228,1.159
				c0.157,0.34,0.367,0.623,0.636,0.855c0.267,0.233,0.581,0.405,0.949,0.527c0.361,0.126,0.754,0.182,1.177,0.177
				c0.764-0.005,1.48-0.162,2.147-0.476c0.67-0.314,1.288-0.739,1.85-1.271c0.077,0.557,0.242,0.981,0.502,1.271
				c0.259,0.299,0.597,0.445,1.019,0.44c0.374,0,0.733-0.056,1.063-0.162c0.328-0.116,0.586-0.253,0.761-0.426l-0.254-0.729
				C157.168,118.83,156.933,118.85,156.711,118.85z M154.21,117.438c-0.229,0.183-0.477,0.354-0.742,0.512
				c-0.263,0.151-0.537,0.293-0.82,0.41c-0.284,0.111-0.579,0.202-0.882,0.273c-0.305,0.07-0.61,0.105-0.915,0.105
				c-0.567,0.006-1.009-0.126-1.331-0.39c-0.321-0.269-0.49-0.684-0.492-1.25c-0.004-0.4,0.096-0.765,0.297-1.099
				c0.196-0.334,0.508-0.623,0.923-0.876c0.417-0.248,0.954-0.446,1.604-0.598c0.65-0.146,1.432-0.233,2.339-0.264L154.21,117.438z"
				/>
			<path d="M178.374,118.531c-0.354,0.07-0.646,0.111-0.878,0.111c-0.43,0.005-0.754-0.183-0.957-0.552
				c-0.203-0.375-0.314-0.876-0.316-1.494l-0.041-6.238l2.463-0.015l0.162-1.373l-2.633,0.021l-0.015-2.724l-1.58,0.008l0.015,2.727
				l-1.56,0.01l0.008,1.369l1.562-0.01l0.041,6.651c0.01,1.134,0.248,1.903,0.719,2.323c0.468,0.416,1.129,0.628,1.977,0.623
				c0.248-0.005,0.59-0.04,1.018-0.096s0.709-0.102,0.848-0.132l-0.134-1.372C178.959,118.404,178.729,118.46,178.374,118.531z"/>
			<rect x="196.193" y="108.862" transform="matrix(-1 0.0062 -0.0062 -1 394.6693 227.3092)" width="1.582" height="10.803"/>
			<path d="M196.922,104.402c-0.289,0-0.512,0.101-0.684,0.299c-0.177,0.202-0.264,0.425-0.261,0.665
				c0,0.271,0.099,0.501,0.288,0.684c0.19,0.18,0.416,0.273,0.669,0.271c0.24,0,0.458-0.096,0.646-0.28s0.278-0.413,0.278-0.687
				c-0.003-0.237-0.086-0.458-0.258-0.66C197.433,104.498,197.2,104.396,196.922,104.402z"/>
			<path d="M220.434,108.541c-1.537,0.013-2.77,0.539-3.693,1.579c-0.919,1.038-1.37,2.33-1.362,3.875
				c0.013,1.731,0.448,3.113,1.329,4.146c0.868,1.048,2.154,1.559,3.848,1.549c1.453-0.01,2.623-0.552,3.519-1.646
				c0.892-1.088,1.337-2.39,1.327-3.913c-0.011-1.595-0.446-2.933-1.312-4.004C223.223,109.062,222.005,108.531,220.434,108.541z
				 M223.147,116.607c-0.405,0.678-0.812,1.154-1.221,1.417c-0.415,0.254-0.898,0.4-1.453,0.4c-0.572,0-1.075-0.127-1.504-0.375
				c-0.435-0.258-0.865-0.688-1.291-1.296c-0.425-0.617-0.643-1.468-0.647-2.577c-0.01-1.296,0.273-2.344,0.86-3.146
				c0.588-0.802,1.423-1.209,2.512-1.217c1.086-0.008,1.913,0.404,2.48,1.237c0.567,0.837,0.855,1.764,0.86,2.781
				C223.755,115.002,223.558,115.924,223.147,116.607z"/>
			<path d="M248.147,108.371c-0.658,0.005-1.319,0.122-1.979,0.35c-0.663,0.232-1.226,0.498-1.681,0.803
				c-0.021-0.348-0.066-0.666-0.127-0.96l-1.529,0.011c0.061,0.488,0.097,0.956,0.099,1.39l0.059,9.407l1.574-0.01l-0.053-8.682
				c0.463-0.296,0.995-0.536,1.6-0.729c0.6-0.19,1.218-0.284,1.841-0.289c0.612-0.008,1.093,0.21,1.442,0.633
				c0.339,0.426,0.517,0.967,0.521,1.614l0.043,7.417l1.58-0.011l-0.049-7.543c-0.005-1.098-0.313-1.938-0.911-2.528
				C249.973,108.654,249.17,108.363,248.147,108.371z"/>
			<path d="M278.111,118.091c-0.18,0.005-0.326-0.025-0.442-0.081c-0.117-0.056-0.213-0.152-0.284-0.304
				c-0.07-0.142-0.116-0.345-0.146-0.603c-0.03-0.253-0.046-0.572-0.046-0.967l-0.03-4.809c-0.005-0.984-0.339-1.752-0.992-2.304
				c-0.663-0.55-1.542-0.82-2.647-0.81c-0.396,0-0.79,0.035-1.183,0.111c-0.4,0.068-0.782,0.174-1.151,0.306
				c-0.37,0.142-0.72,0.302-1.043,0.491c-0.335,0.188-0.618,0.397-0.866,0.628l0.86,1.078c0.183-0.146,0.391-0.299,0.623-0.458
				c0.233-0.167,0.491-0.312,0.77-0.445c0.278-0.137,0.582-0.251,0.901-0.334c0.324-0.094,0.673-0.14,1.048-0.143
				c0.661-0.005,1.175,0.152,1.544,0.474c0.37,0.316,0.555,0.83,0.558,1.531l0.007,1.113c-0.428,0-0.898,0.02-1.399,0.061
				c-0.507,0.04-1.016,0.116-1.524,0.228c-0.509,0.106-1.002,0.259-1.478,0.451c-0.472,0.187-0.896,0.435-1.261,0.738
				c-0.362,0.299-0.658,0.664-0.881,1.094c-0.218,0.426-0.324,0.937-0.319,1.514c0.003,0.431,0.076,0.815,0.228,1.16
				c0.152,0.339,0.359,0.622,0.633,0.851c0.267,0.237,0.583,0.409,0.947,0.531c0.364,0.121,0.757,0.177,1.177,0.177
				c0.768-0.005,1.486-0.167,2.151-0.476c0.666-0.313,1.284-0.739,1.844-1.266c0.078,0.552,0.245,0.978,0.503,1.266
				c0.264,0.294,0.601,0.445,1.023,0.44c0.377-0.005,0.733-0.061,1.058-0.167c0.332-0.111,0.59-0.248,0.765-0.42l-0.253-0.729
				C278.567,118.065,278.337,118.091,278.111,118.091z M275.615,116.678c-0.235,0.183-0.479,0.354-0.739,0.507
				c-0.266,0.157-0.539,0.299-0.827,0.415c-0.284,0.106-0.583,0.202-0.881,0.273c-0.307,0.07-0.608,0.106-0.914,0.106
				c-0.569,0.005-1.01-0.132-1.332-0.396c-0.321-0.263-0.483-0.684-0.488-1.245c0-0.4,0.094-0.765,0.294-1.104
				c0.197-0.329,0.501-0.623,0.924-0.871c0.415-0.248,0.954-0.45,1.607-0.603c0.648-0.142,1.428-0.228,2.339-0.253L275.615,116.678z
				"/>
			<path d="M298.958,117.822c-0.106,0.01-0.213,0.025-0.314,0.03c-0.106,0.011-0.188,0.011-0.238,0.011
				c-0.397,0-0.681-0.066-0.84-0.208c-0.157-0.152-0.243-0.426-0.246-0.835l-0.083-13.459l-1.58,0.011l0.087,13.838
				c0.005,0.663,0.151,1.159,0.445,1.488c0.293,0.334,0.698,0.496,1.215,0.491c0.142,0,0.294-0.016,0.455-0.035
				c0.157-0.025,0.317-0.062,0.477-0.106c0.157-0.041,0.313-0.092,0.461-0.147c0.142-0.056,0.278-0.106,0.399-0.162L298.958,117.822
				z"/>
		</g>
	</g>
</g>
</svg>
